<?xml version="1.0" encoding="UTF-8" standalone="no"?>
<svg
   xmlns:dc="http://purl.org/dc/elements/1.1/"
   xmlns:cc="http://creativecommons.org/ns#"
   xmlns:rdf="http://www.w3.org/1999/02/22-rdf-syntax-ns#"
   xmlns:svg="http://www.w3.org/2000/svg"
   xmlns="http://www.w3.org/2000/svg"
   xmlns:sodipodi="http://sodipodi.sourceforge.net/DTD/sodipodi-0.dtd"
   xmlns:inkscape="http://www.inkscape.org/namespaces/inkscape"
   viewBox="-99.5 70.5 39.700001 45.799999"
   enable-background="new -99.5 70.5 141 47"
   id="svg2"
   version="1.1"
   inkscape:version="0.91 r13725"
   sodipodi:docname="logo-no-text.svg"
   width="39.700001"
   height="45.799999">
  <metadata
     id="metadata32">
    <rdf:RDF>
      <cc:Work
         rdf:about="">
        <dc:format>image/svg+xml</dc:format>
        <dc:type
           rdf:resource="http://purl.org/dc/dcmitype/StillImage" />
        <dc:title>Page-1_12_</dc:title>
      </cc:Work>
    </rdf:RDF>
  </metadata>
  <defs
     id="defs30">
    <linearGradient
       gradientTransform="matrix(39.8,0,0,45.8,4500.6,2.3)"
       y2="1.735"
       x2="-114.586"
       y1="2.243"
       x1="-115.577"
       gradientUnits="userSpaceOnUse"
       id="Shape_2_">
      <stop
         id="stop12"
         stop-color="#FF4C61"
         offset="0" />
      <stop
         id="stop14"
         stop-color="#F51C2B"
         offset="1" />
    </linearGradient>
  </defs>
  <sodipodi:namedview
     pagecolor="#ffffff"
     bordercolor="#666666"
     borderopacity="1"
     objecttolerance="10"
     gridtolerance="10"
     guidetolerance="10"
     inkscape:pageopacity="0"
     inkscape:pageshadow="2"
     inkscape:window-width="1918"
     inkscape:window-height="1059"
     id="namedview28"
     showgrid="false"
     inkscape:zoom="8.6524823"
     inkscape:cx="69.5"
     inkscape:cy="22.3"
     inkscape:window-x="0"
     inkscape:window-y="19"
     inkscape:window-maximized="0"
     inkscape:current-layer="svg2"
     fit-margin-top="0"
     fit-margin-left="0"
     fit-margin-right="0"
     fit-margin-bottom="0" />
  <style
     type="text/css"
     id="style4">.st0{fill:url(#Shape_2_);} .st1{fill:#FF6169;} .st2{fill:#FFFFFF;} .st3{fill:#FFB4B5;} .st4{opacity:0.9;} .st5{fill:#FFFFFF;}</style>
  <title
     id="title6">Page-1_12_</title>
  <desc
     id="desc8">Created with Sketch Beta.</desc>
  <path
     inkscape:connector-curvature="0"
     style="fill:url(#Shape_2_)"
     d="M -79.4,116.3 -99.3,105 -99.5,82.1 -79.8,70.5 -60,81.7 l 0.2,22.9 -19.6,11.7 z"
     class="st0"
     id="Shape" />
  <g
     id="Shape_1_"
     transform="translate(-1,0)">
    <path
       style="fill:#ff6169"
       inkscape:connector-curvature="0"
       id="path18"
       d="m -85.2,98.9 0,5.3 12.5,-7 0,-5.4 -12.5,7.1 z"
       class="st1" />
    <path
       style="fill:#ffffff"
       inkscape:connector-curvature="0"
       id="path20"
       d="m -85.2,88.2 -4.7,-2.6 0,16 4.6,2.6 0,-5.3 4.6,2.7 0.1,-5.4 -4.7,-2.6 0.1,-5.4"
       class="st2" />
    <path
       style="fill:#ffb4b5"
       inkscape:connector-curvature="0"
       id="path22"
       d="m -80.6,96.2 0,5.4 12.4,-7.1 0,-5.3 -12.4,7 z m 7.8,-15 -12.5,7 0,5.4 12.5,-7.1 0,-5.3 z"
       class="st3" />
    <path
       style="fill:#ff6169"
       inkscape:connector-curvature="0"
       id="path24"
       d="m -72.7,86.5 -12.5,7.1 4.6,2.6 12.4,-7.1 -4.5,-2.6 z m -0.1,-5.3 -4.6,-2.7 -12.5,7.1 4.6,2.6 12.5,-7 z"
       class="st1" />
  </g>
</svg>
